<svg width="95" height="65" viewBox="0 0 95 65" fill="none" xmlns="http://www.w3.org/2000/svg">
<g clip-path="url(#clip0_4611_8501)">
<path opacity="0.2" d="M20.5705 2.78433C20.5705 4.32201 19.3191 5.56866 17.7765 5.56866C16.234 5.56866 14.9922 4.32201 14.9922 2.78433C14.9922 1.24664 16.2437 0 17.7765 0C19.3094 0 20.5705 1.25149 20.5705 2.78433Z" fill="#E20613"/>
<path opacity="0.47" d="M28.0022 2.78433C28.0022 4.32201 26.7507 5.56866 25.213 5.56866C23.6754 5.56866 22.4287 4.32201 22.4287 2.78433C22.4287 1.24664 23.6754 0 25.213 0C26.7507 0 28.0022 1.25149 28.0022 2.78433Z" fill="#E20613"/>
<path opacity="0.73" d="M35.428 2.78433C35.428 4.32201 34.1814 5.56866 32.6437 5.56866C31.106 5.56866 29.8594 4.32201 29.8594 2.78433C29.8594 1.24664 31.1012 0 32.6437 0C34.1862 0 35.428 1.25149 35.428 2.78433Z" fill="#E20613"/>
<path d="M42.8548 2.78433C42.8548 4.32201 41.6081 5.56866 40.0705 5.56866C38.5328 5.56866 37.2861 4.32201 37.2861 2.78433C37.2861 1.24664 38.5279 0 40.0705 0C41.613 0 42.8548 1.25149 42.8548 2.78433Z" fill="#E20613"/>
<path d="M50.2864 2.78433C50.2864 4.32201 49.0349 5.56866 47.5021 5.56866C45.9693 5.56866 44.7178 4.32201 44.7178 2.78433C44.7178 1.24664 45.9644 0 47.5021 0C49.0398 0 50.2864 1.25149 50.2864 2.78433Z" fill="white"/>
<path d="M57.7132 2.78433C57.7132 4.32201 56.4714 5.56866 54.9289 5.56866C53.3863 5.56866 52.1445 4.32201 52.1445 2.78433C52.1445 1.24664 53.396 0 54.9289 0C56.4617 0 57.7132 1.25149 57.7132 2.78433Z" fill="white"/>
<path d="M65.1448 2.78433C65.1448 4.32201 63.8982 5.56866 62.3556 5.56866C60.8131 5.56866 59.5713 4.32201 59.5713 2.78433C59.5713 1.24664 60.8228 0 62.3556 0C63.8885 0 65.1448 1.25149 65.1448 2.78433Z" fill="white"/>
<path opacity="0.2" d="M13.1448 10.2108C13.1448 11.7534 11.8981 13 10.3556 13C8.81305 13 7.56641 11.7485 7.56641 10.2108C7.56641 8.67315 8.8179 7.42651 10.3556 7.42651C11.8933 7.42651 13.1448 8.67801 13.1448 10.2108Z" fill="#35A8E0"/>
<path opacity="0.36" d="M20.5715 10.2108C20.5715 11.7534 19.3249 13 17.7823 13C16.2398 13 14.9932 11.7485 14.9932 10.2108C14.9932 8.67315 16.2447 7.42651 17.7823 7.42651C19.32 7.42651 20.5715 8.67801 20.5715 10.2108Z" fill="#35A8E0"/>
<path opacity="0.52" d="M28.0022 10.2108C28.0022 11.7534 26.7507 13 25.213 13C23.6753 13 22.4238 11.7485 22.4238 10.2108C22.4238 8.67315 23.6753 7.42651 25.213 7.42651C26.7507 7.42651 28.0022 8.67801 28.0022 10.2108Z" fill="#35A8E0"/>
<path opacity="0.68" d="M35.429 10.2108C35.429 11.7534 34.1775 13 32.6446 13C31.1118 13 29.8555 11.7485 29.8555 10.2108C29.8555 8.67315 31.1021 7.42651 32.6446 7.42651C34.1872 7.42651 35.429 8.67801 35.429 10.2108Z" fill="#35A8E0"/>
<path opacity="0.84" d="M42.8557 10.2108C42.8557 11.7534 41.6042 13 40.0714 13C38.5386 13 37.2822 11.7485 37.2822 10.2108C37.2822 8.67315 38.5289 7.42651 40.0714 7.42651C41.6139 7.42651 42.8557 8.67801 42.8557 10.2108Z" fill="#35A8E0"/>
<path d="M50.2874 10.2108C50.2874 11.7534 49.0359 13 47.5031 13C45.9702 13 44.7188 11.7485 44.7188 10.2108C44.7188 8.67315 45.9654 7.42651 47.5031 7.42651C49.0408 7.42651 50.2874 8.67801 50.2874 10.2108Z" fill="#35A8E0"/>
<path d="M57.7132 10.2108C57.7132 11.7534 56.4714 13 54.9289 13C53.3863 13 52.1445 11.7485 52.1445 10.2108C52.1445 8.67315 53.396 7.42651 54.9289 7.42651C56.4617 7.42651 57.7132 8.67801 57.7132 10.2108Z" fill="white"/>
<path d="M65.1448 10.2108C65.1448 11.7534 63.8982 13 62.3556 13C60.8131 13 59.5713 11.7485 59.5713 10.2108C59.5713 8.67315 60.8228 7.42651 62.3556 7.42651C63.8885 7.42651 65.1448 8.67801 65.1448 10.2108Z" fill="white"/>
<path d="M72.5706 10.2108C72.5706 11.7534 71.3288 13 69.7862 13C68.2437 13 66.9971 11.7485 66.9971 10.2108C66.9971 8.67315 68.2486 7.42651 69.7862 7.42651C71.3239 7.42651 72.5706 8.67801 72.5706 10.2108Z" fill="white"/>
<path opacity="0.2" d="M20.5705 17.6373C20.5705 19.1799 19.3191 20.4314 17.7765 20.4314C16.234 20.4314 14.9922 19.1799 14.9922 17.6373C14.9922 16.0948 16.2437 14.8578 17.7765 14.8578C19.3094 14.8578 20.5705 16.0996 20.5705 17.6373Z" fill="#DDDB00"/>
<path opacity="0.36" d="M28.0022 17.6373C28.0022 19.1799 26.7507 20.4314 25.213 20.4314C23.6754 20.4314 22.4287 19.1799 22.4287 17.6373C22.4287 16.0948 23.6802 14.8578 25.213 14.8578C26.7459 14.8578 28.0022 16.0996 28.0022 17.6373Z" fill="#DDDB00"/>
<path opacity="0.52" d="M35.428 17.6373C35.428 19.1799 34.1814 20.4314 32.6388 20.4314C31.0963 20.4314 29.8545 19.1799 29.8545 17.6373C29.8545 16.0948 31.106 14.8578 32.6388 14.8578C34.1717 14.8578 35.428 16.0996 35.428 17.6373Z" fill="#DDDB00"/>
<path opacity="0.68" d="M42.8548 17.6373C42.8548 19.1799 41.6081 20.4314 40.0656 20.4314C38.523 20.4314 37.2812 19.1799 37.2812 17.6373C37.2812 16.0948 38.5327 14.8578 40.0656 14.8578C41.5984 14.8578 42.8548 16.0996 42.8548 17.6373Z" fill="#DDDB00"/>
<path opacity="0.84" d="M50.2864 17.6373C50.2864 19.1799 49.0446 20.4314 47.5021 20.4314C45.9596 20.4314 44.7178 19.1799 44.7178 17.6373C44.7178 16.0948 45.9693 14.8578 47.5021 14.8578C49.0349 14.8578 50.2864 16.0996 50.2864 17.6373Z" fill="#DDDB00"/>
<path d="M57.7132 17.6373C57.7132 19.1799 56.4714 20.4314 54.9289 20.4314C53.3863 20.4314 52.1445 19.1799 52.1445 17.6373C52.1445 16.0948 53.396 14.8578 54.9289 14.8578C56.4617 14.8578 57.7132 16.0996 57.7132 17.6373Z" fill="#DDDB00"/>
<path d="M65.1448 17.6373C65.1448 19.1799 63.8982 20.4314 62.3556 20.4314C60.8131 20.4314 59.5713 19.1799 59.5713 17.6373C59.5713 16.0948 60.8228 14.8578 62.3556 14.8578C63.8885 14.8578 65.1448 16.0996 65.1448 17.6373Z" fill="white"/>
<path d="M72.5706 17.6373C72.5706 19.1799 71.3288 20.4314 69.7862 20.4314C68.2437 20.4314 66.9971 19.1799 66.9971 17.6373C66.9971 16.0948 68.2486 14.8578 69.7862 14.8578C71.3239 14.8578 72.5706 16.0996 72.5706 17.6373Z" fill="white"/>
<path d="M79.9974 17.6373C79.9974 19.1799 78.7556 20.4314 77.2179 20.4314C75.6802 20.4314 74.4287 19.1799 74.4287 17.6373C74.4287 16.0948 75.6802 14.8578 77.2179 14.8578C78.7556 14.8578 79.9974 16.0996 79.9974 17.6373Z" fill="white"/>
<path opacity="0.2" d="M13.1448 25.0735C13.1448 26.6112 11.8981 27.8578 10.3556 27.8578C8.81305 27.8578 7.56641 26.6112 7.56641 25.0735C7.56641 23.5358 8.8179 22.2892 10.3556 22.2892C11.8933 22.2892 13.1448 23.5358 13.1448 25.0735Z" fill="#941B80"/>
<path opacity="0.31" d="M20.5764 25.0735C20.5764 26.6112 19.3298 27.8578 17.7872 27.8578C16.2447 27.8578 14.998 26.6112 14.998 25.0735C14.998 23.5358 16.2495 22.2892 17.7872 22.2892C19.3249 22.2892 20.5764 23.5358 20.5764 25.0735Z" fill="#941B80"/>
<path opacity="0.43" d="M28.0022 25.0735C28.0022 26.6112 26.7555 27.8578 25.213 27.8578C23.6705 27.8578 22.4238 26.6112 22.4238 25.0735C22.4238 23.5358 23.6753 22.2892 25.213 22.2892C26.7507 22.2892 28.0022 23.5358 28.0022 25.0735Z" fill="#941B80"/>
<path opacity="0.54" d="M35.4289 25.0735C35.4289 26.6112 34.1823 27.8578 32.6398 27.8578C31.0972 27.8578 29.8506 26.6112 29.8506 25.0735C29.8506 23.5358 31.1021 22.2892 32.6398 22.2892C34.1775 22.2892 35.4289 23.5358 35.4289 25.0735Z" fill="#941B80"/>
<path opacity="0.66" d="M42.8606 25.0735C42.8606 26.6112 41.614 27.8578 40.0714 27.8578C38.5289 27.8578 37.2871 26.6112 37.2871 25.0735C37.2871 23.5358 38.5386 22.2892 40.0714 22.2892C41.6043 22.2892 42.8606 23.5358 42.8606 25.0735Z" fill="#941B80"/>
<path opacity="0.77" d="M50.2874 25.0735C50.2874 26.6112 49.0407 27.8578 47.4982 27.8578C45.9557 27.8578 44.7139 26.6112 44.7139 25.0735C44.7139 23.5358 45.9654 22.2892 47.4982 22.2892C49.031 22.2892 50.2874 23.5358 50.2874 25.0735Z" fill="#941B80"/>
<path opacity="0.89" d="M57.718 25.0735C57.718 26.6112 56.4714 27.8578 54.9289 27.8578C53.3863 27.8578 52.1445 26.6112 52.1445 25.0735C52.1445 23.5358 53.396 22.2892 54.9289 22.2892C56.4617 22.2892 57.718 23.5358 57.718 25.0735Z" fill="#941B80"/>
<path d="M65.1448 25.0735C65.1448 26.6112 63.8982 27.8578 62.3556 27.8578C60.8131 27.8578 59.5713 26.6112 59.5713 25.0735C59.5713 23.5358 60.8228 22.2892 62.3556 22.2892C63.8885 22.2892 65.1448 23.5358 65.1448 25.0735Z" fill="#941B80"/>
<path d="M72.5706 25.0735C72.5706 26.6112 71.3288 27.8578 69.7862 27.8578C68.2437 27.8578 66.9971 26.6112 66.9971 25.0735C66.9971 23.5358 68.2486 22.2892 69.7862 22.2892C71.3239 22.2892 72.5706 23.5358 72.5706 25.0735Z" fill="white"/>
<path d="M79.9974 25.0735C79.9974 26.6112 78.7556 27.8578 77.2179 27.8578C75.6802 27.8578 74.4287 26.6112 74.4287 25.0735C74.4287 23.5358 75.6802 22.2892 77.2179 22.2892C78.7556 22.2892 79.9974 23.5358 79.9974 25.0735Z" fill="white"/>
<path d="M87.4339 25.0735C87.4339 26.6112 86.1824 27.8578 84.6495 27.8578C83.1167 27.8578 81.8604 26.6112 81.8604 25.0735C81.8604 23.5358 83.1021 22.2892 84.6495 22.2892C86.1969 22.2892 87.4339 23.5358 87.4339 25.0735Z" fill="white"/>
<path opacity="0.2" d="M5.71316 39.9265C5.71316 41.4642 4.46166 42.7108 2.92883 42.7108C1.39599 42.7108 0.139648 41.4593 0.139648 39.9265C0.139648 38.3937 1.39114 37.1373 2.92883 37.1373C4.46651 37.1373 5.71316 38.3888 5.71316 39.9265Z" fill="#0069B3"/>
<path opacity="0.3" d="M13.1399 39.9265C13.1399 41.4642 11.8884 42.7108 10.3556 42.7108C8.82275 42.7108 7.56641 41.4593 7.56641 39.9265C7.56641 38.3937 8.8179 37.1373 10.3556 37.1373C11.8933 37.1373 13.1399 38.3888 13.1399 39.9265Z" fill="#0069B3"/>
<path opacity="0.4" d="M20.5706 39.9265C20.5706 41.4642 19.3191 42.7108 17.7863 42.7108C16.2534 42.7108 14.9971 41.4593 14.9971 39.9265C14.9971 38.3937 16.2486 37.1373 17.7863 37.1373C19.3239 37.1373 20.5706 38.3888 20.5706 39.9265Z" fill="#0069B3"/>
<path opacity="0.5" d="M27.9973 39.9265C27.9973 41.4642 26.7458 42.7108 25.213 42.7108C23.6802 42.7108 22.4238 41.4593 22.4238 39.9265C22.4238 38.3937 23.6753 37.1373 25.213 37.1373C26.7507 37.1373 27.9973 38.3888 27.9973 39.9265Z" fill="#0069B3"/>
<path opacity="0.6" d="M35.429 39.9265C35.429 41.4642 34.1775 42.7108 32.6446 42.7108C31.1118 42.7108 29.8555 41.4593 29.8555 39.9265C29.8555 38.3937 31.107 37.1373 32.6446 37.1373C34.1823 37.1373 35.429 38.3888 35.429 39.9265Z" fill="#0069B3"/>
<path opacity="0.7" d="M42.8606 39.9265C42.8606 41.4642 41.6091 42.7108 40.0763 42.7108C38.5435 42.7108 37.2871 41.4593 37.2871 39.9265C37.2871 38.3937 38.5386 37.1373 40.0763 37.1373C41.614 37.1373 42.8606 38.3888 42.8606 39.9265Z" fill="#0069B3"/>
<path opacity="0.8" d="M50.2864 39.9265C50.2864 41.4642 49.0398 42.7108 47.4972 42.7108C45.9547 42.7108 44.7129 41.4593 44.7129 39.9265C44.7129 38.3937 45.9644 37.1373 47.4972 37.1373C49.0301 37.1373 50.2864 38.3888 50.2864 39.9265Z" fill="#0069B3"/>
<path opacity="0.9" d="M57.718 39.9265C57.718 41.4642 56.4714 42.7108 54.9289 42.7108C53.3863 42.7108 52.1445 41.4593 52.1445 39.9265C52.1445 38.3937 53.396 37.1373 54.9289 37.1373C56.4617 37.1373 57.718 38.3888 57.718 39.9265Z" fill="#0069B3"/>
<path d="M65.1448 39.9265C65.1448 41.4642 63.8982 42.7108 62.3556 42.7108C60.8131 42.7108 59.5713 41.4593 59.5713 39.9265C59.5713 38.3937 60.8228 37.1373 62.3556 37.1373C63.8885 37.1373 65.1448 38.3888 65.1448 39.9265Z" fill="#0069B3"/>
<path d="M72.5706 39.9265C72.5706 41.4642 71.3288 42.7108 69.7862 42.7108C68.2437 42.7108 66.9971 41.4593 66.9971 39.9265C66.9971 38.3937 68.2486 37.1373 69.7862 37.1373C71.3239 37.1373 72.5706 38.3888 72.5706 39.9265Z" fill="white"/>
<path d="M79.9974 39.9265C79.9974 41.4642 78.7556 42.7108 77.2179 42.7108C75.6802 42.7108 74.4287 41.4593 74.4287 39.9265C74.4287 38.3937 75.6802 37.1373 77.2179 37.1373C78.7556 37.1373 79.9974 38.3888 79.9974 39.9265Z" fill="white"/>
<path d="M87.4339 39.9265C87.4339 41.4642 86.1824 42.7108 84.6495 42.7108C83.1167 42.7108 81.8604 41.4593 81.8604 39.9265C81.8604 38.3937 83.1021 37.1373 84.6495 37.1373C86.1969 37.1373 87.4339 38.3888 87.4339 39.9265Z" fill="white"/>
<path opacity="0.2" d="M13.1448 47.3578C13.1448 48.8955 11.8981 50.1373 10.3556 50.1373C8.81305 50.1373 7.56641 48.8955 7.56641 47.3578C7.56641 45.8202 8.8179 44.5687 10.3556 44.5687C11.8933 44.5687 13.1448 45.8202 13.1448 47.3578Z" fill="#93C01F"/>
<path opacity="0.33" d="M20.5715 47.3578C20.5715 48.8955 19.3249 50.1373 17.7823 50.1373C16.2398 50.1373 14.9932 48.8955 14.9932 47.3578C14.9932 45.8202 16.2447 44.5687 17.7823 44.5687C19.32 44.5687 20.5715 45.8202 20.5715 47.3578Z" fill="#93C01F"/>
<path opacity="0.47" d="M28.0022 47.3578C28.0022 48.8955 26.7555 50.1373 25.213 50.1373C23.6705 50.1373 22.4238 48.8955 22.4238 47.3578C22.4238 45.8202 23.6753 44.5687 25.213 44.5687C26.7507 44.5687 28.0022 45.8202 28.0022 47.3578Z" fill="#93C01F"/>
<path opacity="0.6" d="M35.429 47.3578C35.429 48.8955 34.1823 50.1373 32.6446 50.1373C31.107 50.1373 29.8555 48.8955 29.8555 47.3578C29.8555 45.8202 31.107 44.5687 32.6446 44.5687C34.1823 44.5687 35.429 45.8202 35.429 47.3578Z" fill="#93C01F"/>
<path opacity="0.73" d="M42.8557 47.3578C42.8557 48.8955 41.6139 50.1373 40.0714 50.1373C38.5289 50.1373 37.2822 48.8955 37.2822 47.3578C37.2822 45.8202 38.5337 44.5687 40.0714 44.5687C41.6091 44.5687 42.8557 45.8202 42.8557 47.3578Z" fill="#93C01F"/>
<path opacity="0.87" d="M50.2874 47.3578C50.2874 48.8955 49.0456 50.1373 47.503 50.1373C45.9605 50.1373 44.7139 48.8955 44.7139 47.3578C44.7139 45.8202 45.9654 44.5687 47.503 44.5687C49.0407 44.5687 50.2874 45.8202 50.2874 47.3578Z" fill="#93C01F"/>
<path d="M57.7132 47.3578C57.7132 48.8955 56.4714 50.1373 54.9289 50.1373C53.3863 50.1373 52.1445 48.8955 52.1445 47.3578C52.1445 45.8202 53.396 44.5687 54.9289 44.5687C56.4617 44.5687 57.7132 45.8202 57.7132 47.3578Z" fill="#93C01F"/>
<path d="M65.1448 47.3578C65.1448 48.8955 63.8982 50.1373 62.3556 50.1373C60.8131 50.1373 59.5713 48.8955 59.5713 47.3578C59.5713 45.8202 60.8228 44.5687 62.3556 44.5687C63.8885 44.5687 65.1448 45.8202 65.1448 47.3578Z" fill="white"/>
<path opacity="0.2" d="M35.4242 32.4951C35.4242 34.0377 34.1824 35.2843 32.6447 35.2843C31.107 35.2843 29.8604 34.0377 29.8604 32.4951C29.8604 30.9526 31.1118 29.7108 32.6447 29.7108C34.1775 29.7108 35.4242 30.9526 35.4242 32.4951Z" fill="#F29100"/>
<path opacity="0.36" d="M42.8558 32.4951C42.8558 34.0377 41.614 35.2843 40.0763 35.2843C38.5386 35.2843 37.2871 34.0377 37.2871 32.4951C37.2871 30.9526 38.5386 29.7108 40.0763 29.7108C41.614 29.7108 42.8558 30.9526 42.8558 32.4951Z" fill="#F29100"/>
<path opacity="0.52" d="M50.2815 32.4951C50.2815 34.0377 49.0398 35.2843 47.5021 35.2843C45.9644 35.2843 44.7129 34.0377 44.7129 32.4951C44.7129 30.9526 45.9644 29.7108 47.5021 29.7108C49.0398 29.7108 50.2815 30.9526 50.2815 32.4951Z" fill="#F29100"/>
<path opacity="0.68" d="M57.7132 32.4951C57.7132 34.0377 56.4714 35.2843 54.9288 35.2843C53.3863 35.2843 52.1396 34.0377 52.1396 32.4951C52.1396 30.9526 53.3911 29.7108 54.9288 29.7108C56.4665 29.7108 57.7132 30.9526 57.7132 32.4951Z" fill="#F29100"/>
<path opacity="0.84" d="M65.1399 32.4951C65.1399 34.0377 63.8981 35.2843 62.3556 35.2843C60.813 35.2843 59.5664 34.0377 59.5664 32.4951C59.5664 30.9526 60.8179 29.7108 62.3556 29.7108C63.8933 29.7108 65.1399 30.9526 65.1399 32.4951Z" fill="#F29100"/>
<path d="M72.5716 32.4951C72.5716 34.0377 71.3298 35.2843 69.7872 35.2843C68.2447 35.2843 66.998 34.0377 66.998 32.4951C66.998 30.9526 68.2495 29.7108 69.7872 29.7108C71.3249 29.7108 72.5716 30.9526 72.5716 32.4951Z" fill="#F29100"/>
<path d="M79.9974 32.4951C79.9974 34.0377 78.7556 35.2843 77.2179 35.2843C75.6802 35.2843 74.4287 34.0377 74.4287 32.4951C74.4287 30.9526 75.6802 29.7108 77.2179 29.7108C78.7556 29.7108 79.9974 30.9526 79.9974 32.4951Z" fill="white"/>
<path d="M87.4339 32.4951C87.4339 34.0377 86.1824 35.2843 84.6495 35.2843C83.1167 35.2843 81.8604 34.0377 81.8604 32.4951C81.8604 30.9526 83.1021 29.7108 84.6495 29.7108C86.1969 29.7108 87.4339 30.9526 87.4339 32.4951Z" fill="white"/>
<path d="M94.8606 32.4951C94.8606 34.0377 93.6091 35.2843 92.0763 35.2843C90.5434 35.2843 89.2822 34.0377 89.2822 32.4951C89.2822 30.9526 90.5289 29.7108 92.0763 29.7108C93.6236 29.7108 94.8606 30.9526 94.8606 32.4951Z" fill="white"/>
<path d="M72.5706 47.3578C72.5706 48.8955 71.3288 50.1373 69.7862 50.1373C68.2437 50.1373 66.9971 48.8955 66.9971 47.3578C66.9971 45.8202 68.2486 44.5687 69.7862 44.5687C71.3239 44.5687 72.5706 45.8202 72.5706 47.3578Z" fill="white"/>
<path d="M79.9974 47.3578C79.9974 48.8955 78.7556 50.1373 77.2179 50.1373C75.6802 50.1373 74.4287 48.8955 74.4287 47.3578C74.4287 45.8202 75.6802 44.5687 77.2179 44.5687C78.7556 44.5687 79.9974 45.8202 79.9974 47.3578Z" fill="white"/>
<path opacity="0.2" d="M27.9974 54.7892C27.9974 56.322 26.7556 57.5687 25.213 57.5687C23.6705 57.5687 22.4287 56.3172 22.4287 54.7892C22.4287 53.2612 23.6802 51.9952 25.213 51.9952C26.7459 51.9952 27.9974 53.2418 27.9974 54.7892Z" fill="#00AFA9"/>
<path opacity="0.47" d="M35.4241 54.7892C35.4241 56.322 34.1775 57.5687 32.6398 57.5687C31.1021 57.5687 29.8555 56.3172 29.8555 54.7892C29.8555 53.2612 31.1021 51.9952 32.6398 51.9952C34.1775 51.9952 35.4241 53.2418 35.4241 54.7892Z" fill="#00AFA9"/>
<path opacity="0.73" d="M42.8548 54.7892C42.8548 56.322 41.6033 57.5687 40.0705 57.5687C38.5376 57.5687 37.2861 56.3172 37.2861 54.7892C37.2861 53.2612 38.5328 51.9952 40.0705 51.9952C41.6081 51.9952 42.8548 53.2418 42.8548 54.7892Z" fill="#00AFA9"/>
<path d="M50.2864 54.7892C50.2864 56.322 49.0349 57.5687 47.5021 57.5687C45.9693 57.5687 44.7178 56.3172 44.7178 54.7892C44.7178 53.2612 45.9644 51.9952 47.5021 51.9952C49.0398 51.9952 50.2864 53.2418 50.2864 54.7892Z" fill="#00AFA9"/>
<path d="M57.7132 54.7892C57.7132 56.322 56.4714 57.5687 54.9289 57.5687C53.3863 57.5687 52.1445 56.3172 52.1445 54.7892C52.1445 53.2612 53.396 51.9952 54.9289 51.9952C56.4617 51.9952 57.7132 53.2418 57.7132 54.7892Z" fill="white"/>
<path d="M65.1448 54.7892C65.1448 56.322 63.8982 57.5687 62.3556 57.5687C60.8131 57.5687 59.5713 56.3172 59.5713 54.7892C59.5713 53.2612 60.8228 51.9952 62.3556 51.9952C63.8885 51.9952 65.1448 53.2418 65.1448 54.7892Z" fill="white"/>
<path d="M72.5706 54.7892C72.5706 56.322 71.3288 57.5687 69.7862 57.5687C68.2437 57.5687 66.9971 56.3172 66.9971 54.7892C66.9971 53.2612 68.2486 51.9952 69.7862 51.9952C71.3239 51.9952 72.5706 53.2418 72.5706 54.7892Z" fill="white"/>
<path opacity="0.2" d="M20.5705 62.2157C20.5705 63.7533 19.3191 65 17.7765 65C16.234 65 14.9922 63.7485 14.9922 62.2157C14.9922 60.6828 16.2437 59.4313 17.7765 59.4313C19.3094 59.4313 20.5705 60.678 20.5705 62.2157Z" fill="#E5007E"/>
<path opacity="0.47" d="M28.0022 62.2157C28.0022 63.7533 26.7507 65 25.213 65C23.6754 65 22.4287 63.7485 22.4287 62.2157C22.4287 60.6828 23.6754 59.4313 25.213 59.4313C26.7507 59.4313 28.0022 60.678 28.0022 62.2157Z" fill="#E5007E"/>
<path opacity="0.73" d="M35.428 62.2157C35.428 63.7533 34.1814 65 32.6437 65C31.106 65 29.8594 63.7485 29.8594 62.2157C29.8594 60.6828 31.1012 59.4313 32.6437 59.4313C34.1862 59.4313 35.428 60.678 35.428 62.2157Z" fill="#E5007E"/>
<path d="M42.8548 62.2157C42.8548 63.7533 41.6081 65 40.0705 65C38.5328 65 37.2861 63.7485 37.2861 62.2157C37.2861 60.6828 38.5279 59.4313 40.0705 59.4313C41.613 59.4313 42.8548 60.678 42.8548 62.2157Z" fill="#E5007E"/>
<path d="M50.2864 62.2157C50.2864 63.7533 49.0349 65 47.5021 65C45.9693 65 44.7178 63.7485 44.7178 62.2157C44.7178 60.6828 45.9644 59.4313 47.5021 59.4313C49.0398 59.4313 50.2864 60.678 50.2864 62.2157Z" fill="white"/>
<path d="M57.7132 62.2157C57.7132 63.7533 56.4714 65 54.9289 65C53.3863 65 52.1445 63.7485 52.1445 62.2157C52.1445 60.6828 53.396 59.4313 54.9289 59.4313C56.4617 59.4313 57.7132 60.678 57.7132 62.2157Z" fill="white"/>
<path d="M65.1448 62.2157C65.1448 63.7533 63.8982 65 62.3556 65C60.8131 65 59.5713 63.7485 59.5713 62.2157C59.5713 60.6828 60.8228 59.4313 62.3556 59.4313C63.8885 59.4313 65.1448 60.678 65.1448 62.2157Z" fill="white"/>
</g>
<defs>
<clipPath id="clip0_4611_8501">
<rect width="94.7205" height="65" fill="white" transform="translate(0.139648)"/>
</clipPath>
</defs>
</svg>
